<svg xmlns="http://www.w3.org/2000/svg" height="512" viewBox="0 0 512 512" width="512" class=""><g><path d="m512 256c0 141.386719-114.613281 256-256 256s-256-114.613281-256-256 114.613281-256 256-256 256 114.613281 256 256zm0 0" fill="#60dd4e" data-original="#60DD4E" class="" style="fill:#0072FF"></path><path d="m510.84375 280.292969-211.792969-211.792969h-86.101562v144.449219h-144.449219v86.101562l211.792969 211.792969c121.992187-11.484375 219.066406-108.558594 230.550781-230.550781zm0 0" fill="#00c800" data-original="#00C800" class="active-path" style="fill:#0259B1" data-old_color="#0082FF"></path><path d="m443.5 212.949219h-144.449219v-144.449219h-86.101562v144.449219h-144.449219v86.101562h144.449219v144.449219h86.101562v-144.449219h144.449219zm0 0" fill="#fff" data-original="#FFF" class=""></path><path d="m443.5 212.949219v86.101562h-144.449219v144.449219h-43.050781v-375h43.050781v144.449219zm0 0" fill="#fff5cb" data-original="#FFF5CB" class="" style="fill:#FFF5CB" data-old_color="#00FFDB"></path></g> </svg>