<?xml version="1.0" encoding="iso-8859-1"?>
<!-- Generator: Adobe Illustrator 19.0.0, SVG Export Plug-In . SVG Version: 6.00 Build 0)  -->
<svg version="1.1" id="Capa_1" xmlns="http://www.w3.org/2000/svg" xmlns:xlink="http://www.w3.org/1999/xlink" x="0px" y="0px"
	 viewBox="0 0 512 512" style="enable-background:new 0 0 512 512;" xml:space="preserve">
<circle style="fill:#00E8F2;" cx="256" cy="256" r="256"/>
<path style="fill:#00B7BE;" d="M511.72,268.1C505.4,403.86,393.32,512,256,512c-14.35,0-28.43-1.18-42.14-3.46L104.09,398.77v-36.31
	c0-29.55,20.91-54.46,48.68-60.65c0.29-0.06,0.57-0.14,0.86-0.2c0.26-0.03,0.58-0.12,0.86-0.17c0.09-0.03,0.21-0.03,0.32-0.06
	c0.2-0.06,0.43-0.09,0.66-0.12c0.06-0.03,0.09-0.03,0.15-0.03c0.2-0.05,0.4-0.08,0.57-0.08c0.41-0.06,0.78-0.15,1.18-0.2
	c0.06,0,0.15,0,0.23-0.03c0.09,0,0.17-0.03,0.29-0.03c0.23-0.06,0.43-0.06,0.66-0.09c0.03-0.03,0.09-0.03,0.12-0.03
	c0.08,0,0.17-0.02,0.26-0.02c0.11,0,0.23-0.03,0.34-0.03c0.58-0.09,1.18-0.15,1.76-0.18h0.08c0.18-0.03,0.38-0.05,0.58-0.05h0.11
	c0.32-0.03,0.66-0.06,0.98-0.06c0.58-0.06,1.12-0.09,1.7-0.09c0.57,0,1.15-0.03,1.72-0.03h36.06v-23.5l-12.07-12.11
	c-8.44-7.84-16.72-18.09-24.22-31.45l-30.03-29.86c-3.31-3.24-5.57-7.6-6.1-12.55l-1.82-16.76c-1.1-10.16,5.42-19.46,14.93-22.2v-27
	c0-20.45,20.56-89.26,95.76-89.26c32.43,0,54.69,12.8,69.53,29L511.72,268.1z"/>
<rect x="202.26" y="272.75" style="fill:#FFC473;" width="72.9" height="91.97"/>
<rect x="238.3" y="272.75" style="fill:#FFAA20;" width="36.854" height="91.98"/>
<path style="fill:#FFDBA9;" d="M332.548,151.425c-3.918-57.676-53.105-90.41-93.839-90.41s-89.921,32.734-93.839,90.41
	c-10.541,1.974-18.021,11.825-16.848,22.657l1.815,16.759c1.231,11.37,11.541,19.665,22.91,18.433l1.958-0.212
	c23.274,60.583,60.833,76.181,84.003,79.724c23.17-3.543,60.729-19.141,84.003-79.724l1.958,0.212
	c11.369,1.232,21.679-7.063,22.91-18.433l1.815-16.759C350.569,163.25,343.088,153.399,332.548,151.425z"/>
<path style="fill:#FFC473;" d="M349.394,174.077l-1.813,16.759c-1.23,11.371-11.538,19.667-22.909,18.437l-1.959-0.208
	c-13.049,33.956-30.58,53.78-47.558,65.266c-13.31,9.015-26.265,12.903-36.447,14.456c-0.135-0.021-0.271-0.042-0.406-0.063V61.014
	h0.406c40.731,0,89.925,32.737,93.844,90.415c0.657,0.125,1.292,0.271,1.918,0.459C343.985,154.619,350.499,163.916,349.394,174.077
	z"/>
<polygon style="fill:#FFAA20;" points="298.768,170.962 238.301,170.962 238.301,236.998 258.25,236.998 258.25,189.471 
	298.768,189.471 "/>
<rect x="176.71" y="170.96" style="fill:#FFC473;" width="46.822" height="18.509"/>
<path style="fill:#FF4F19;" d="M373.33,362.46v36.31H104.087v-36.31c0-29.548,20.917-54.464,48.681-60.65
	c0.288-0.058,0.575-0.144,0.863-0.202c0.259-0.029,0.575-0.115,0.863-0.172c0.086-0.029,0.201-0.029,0.316-0.058
	c0.201-0.058,0.432-0.086,0.662-0.115c0.057-0.029,0.086-0.029,0.144-0.029c0.202-0.058,0.403-0.087,0.575-0.087
	c0.403-0.057,0.777-0.144,1.18-0.201c0.058,0,0.144,0,0.23-0.029c0.087,0,0.173-0.029,0.288-0.029
	c0.23-0.058,0.432-0.058,0.662-0.087c0.029-0.029,0.086-0.029,0.115-0.029c0.086,0,0.173-0.029,0.259-0.029
	c0.115,0,0.23-0.029,0.345-0.029c0.575-0.086,1.179-0.144,1.755-0.172h0.086c0.173-0.029,0.374-0.058,0.575-0.058h0.115
	c0.316-0.029,0.662-0.058,0.978-0.058c0.575-0.057,1.122-0.086,1.698-0.086c0.575,0,1.151-0.029,1.726-0.029h36.051l36.454,55.587
	c0,0,36.453-55.385,36.453-55.587h36.051c0.489,0,0.978,0.029,1.438,0.029h0.604c0.057,0,0.115,0,0.173,0.029
	c0.403,0,0.806,0.029,1.208,0.057c0.316,0,0.662,0.029,0.978,0.058h0.115c0.201,0,0.403,0.029,0.575,0.058h0.086
	c0.604,0.029,1.18,0.086,1.755,0.172c0.115,0,0.23,0.029,0.345,0.029c0.086,0,0.172,0.029,0.259,0.029c0.029,0,0.086,0,0.115,0.029
	c0.23,0.029,0.432,0.029,0.662,0.087c0.115,0,0.201,0.029,0.288,0.029c0.086,0.029,0.144,0.029,0.201,0.029h0.029
	c0.575,0.086,1.179,0.172,1.755,0.288l0.144,0.029c0.23,0.029,0.46,0.057,0.662,0.115c0.374,0.058,0.719,0.144,1.065,0.202
	c0.23,0.057,0.431,0.086,0.662,0.144c0.115,0.029,0.201,0.058,0.316,0.086C352.414,307.995,373.33,332.912,373.33,362.46z"/>
<path style="fill:#CA1E00;" d="M373.334,362.464v36.301H238.301v-43.483l0.406,0.615c0,0,35.718-54.259,36.447-55.562
	c0.01-0.01,0.01-0.021,0.01-0.021h36.051c0.49,0,0.969,0.031,1.438,0.031h0.605c0.052,0,0.115,0,0.167,0.021
	c0.406,0,0.813,0.031,1.209,0.063c0.323,0,0.667,0.031,0.98,0.052h0.115c0.198,0,0.406,0.031,0.573,0.063h0.094
	c0.604,0.031,1.178,0.083,1.751,0.177c0.115,0,0.229,0.021,0.344,0.021c0.083,0,0.177,0.031,0.261,0.031
	c0.031,0,0.083,0,0.115,0.031c0.229,0.031,0.427,0.031,0.657,0.083c0.115,0,0.208,0.031,0.292,0.031
	c0.083,0.031,0.146,0.031,0.198,0.031h0.031c0.573,0.083,1.178,0.167,1.761,0.281l0.135,0.031c0.229,0.031,0.459,0.052,0.667,0.115
	c0.375,0.063,0.719,0.146,1.063,0.198c0.229,0.063,0.427,0.094,0.657,0.146c0.115,0.031,0.208,0.063,0.323,0.083
	C352.417,307.996,373.334,332.916,373.334,362.464z"/>
<path style="fill:#57555C;" d="M238.709,35.621c-75.198,0-95.755,68.812-95.755,89.263c0,20.452,0,70.54,0,70.54h13.525
	c3.787-27.593,12.984-74.056,12.984-74.056c33.001,6.492,69.247,5.951,69.247,5.951s36.246,0.541,69.246-5.951
	c0,0,9.197,46.463,12.984,74.056h13.525c0,0,0-50.088,0-70.54C334.464,104.433,313.906,35.621,238.709,35.621z"/>
<path style="fill:#3C3B41;" d="M334.469,124.883v27.005c0,21.012,0,43.535,0,43.535h-13.528
	c-3.794-27.588-12.987-74.052-12.987-74.052c-32.997,6.483-69.247,5.951-69.247,5.951s-0.135,0-0.406,0V35.625h0.406
	C313.906,35.625,334.469,104.435,334.469,124.883z"/>
<circle style="fill:#FFF5CB;" cx="353.37" cy="384.63" r="61.831"/>
<polygon style="fill:#4B5BE5;" points="387.993,372.761 365.24,372.761 365.24,350.008 341.507,350.008 341.507,372.761 
	318.753,372.761 318.753,396.494 341.507,396.494 341.507,419.247 365.24,419.247 365.24,396.494 387.993,396.494 "/>
<g>
</g>
<g>
</g>
<g>
</g>
<g>
</g>
<g>
</g>
<g>
</g>
<g>
</g>
<g>
</g>
<g>
</g>
<g>
</g>
<g>
</g>
<g>
</g>
<g>
</g>
<g>
</g>
<g>
</g>
</svg>
