<?xml version="1.0" encoding="iso-8859-1"?>
<!-- Generator: Adobe Illustrator 19.0.0, SVG Export Plug-In . SVG Version: 6.00 Build 0)  -->
<svg version="1.1" id="Capa_1" xmlns="http://www.w3.org/2000/svg" xmlns:xlink="http://www.w3.org/1999/xlink" x="0px" y="0px"
	 viewBox="0 0 512 512" style="enable-background:new 0 0 512 512;" xml:space="preserve">
<path style="fill:#FFDA45;" d="M256,0C115.3,0,0,115.3,0,256s115.3,256,256,256s256-115.3,256-256S396.7,0,256,0z"/>
<path style="fill:#FFBC36;" d="M512,256c0,140.7-115.3,256-256,256V0C396.7,0,512,115.3,512,256z"/>
<g>
	<path style="fill:#704639;" d="M391,376c0,8.399-6.599,15-15,15H136c-8.401,0-15-6.601-15-15c0-8.401,6.599-15,15-15h240
		C384.401,361,391,367.599,391,376z"/>
	<path style="fill:#704639;" d="M226,241H106c-8.291,0-15,6.709-15,15c0,8.291,6.709,15,15,15h75v15c0,8.291,6.709,15,15,15
		s15-6.709,15-15v-15h15c8.291,0,15-6.709,15-15S234.291,241,226,241z"/>
</g>
<path style="fill:#5E382C;" d="M406,241H286c-8.291,0-15,6.709-15,15c0,8.291,6.709,15,15,15h75v15c0,8.291,6.709,15,15,15
	s15-6.709,15-15v-15h15c8.291,0,15-6.709,15-15S414.291,241,406,241z"/>
<path style="fill:#FF73A5;" d="M91,421c-33.091,0-60-26.909-60-60s26.909-60,60-60s60,26.909,60,60S124.091,421,91,421z"/>
<path style="fill:#5E382C;" d="M391,376c0,8.399-6.599,15-15,15H256v-30h120C384.401,361,391,367.599,391,376z"/>
<path style="fill:#FF5F96;" d="M421,421c-33.091,0-60-26.909-60-60s26.909-60,60-60s61,26.909,61,60S454.091,421,421,421z"/>
<g>
</g>
<g>
</g>
<g>
</g>
<g>
</g>
<g>
</g>
<g>
</g>
<g>
</g>
<g>
</g>
<g>
</g>
<g>
</g>
<g>
</g>
<g>
</g>
<g>
</g>
<g>
</g>
<g>
</g>
</svg>
